<?xml version="1.0" encoding="utf-8"?>
<svg viewBox="75 115 353.351 260.7167" height="100%" xmlns="http://www.w3.org/2000/svg">
  <g>
    <title>water</title>
    <g transform="matrix(1, 0, 0, 1, -0.273621, 0.142021)">
      <title>right</title>
      <path d="M 251.597 170.967 C 238.994 149.239 220.763 131.276 215.333 127.76 C 213.782 126.756 210.46 126.174 209.261 128.314 C 208.939 128.888 207.458 132.877 212.245 134.245 C 217.703 135.805 235.454 149.938 251.597 170.967 Z"/>
      <path d="M 248.64 188.334 C 237.153 166.35 211.408 145.147 205.366 141.684 C 203.64 140.695 200.184 140.051 198.85 142.158 C 198.492 142.724 197.356 146.364 202.472 148.124 C 212.617 151.615 239.049 175.583 248.64 188.334 Z"/>
      <path d="M 247.649 207.252 C 233.363 182.205 203.286 160.188 195.954 156.356 C 193.859 155.261 189.665 154.548 188.047 156.88 C 187.612 157.506 186.597 160.763 192.56 163.267 C 208.186 169.828 233.654 189.375 247.649 207.252 Z"/>
      <path d="M 244.657 224.001 C 232.602 202.091 193.53 173.458 185.098 171.316 C 182.408 170.633 178.91 169.295 176.985 171.903 C 176.467 172.603 174.857 177.688 182.356 179.048 C 191.39 180.687 226.835 200.925 244.657 224.001 Z"/>
      <path d="M 246.443 247.121 C 221.93 209.418 185.587 193.181 175.488 188.801 C 172.603 187.549 166.825 186.734 164.596 189.4 C 163.997 190.115 162.119 196.423 170.814 196.701 C 179.658 196.984 223.967 217.876 246.443 247.121 Z"/>
      <path d="M 245.842 266.939 C 225.079 230.368 175.827 210.487 164.149 205.832 C 160.814 204.502 154.133 203.636 151.555 206.469 C 150.862 207.229 148.773 214.014 158.745 214.227 C 175.732 214.59 216.255 233.085 245.842 266.939 Z"/>
      <path d="M 251.309 296.671 C 225.411 248.009 169.75 228.105 152.659 224.547 C 152.627 224.579 143.397 221.891 139.543 222.897 C 136.204 223.768 136.947 228.711 139.216 229.169 C 143.198 229.972 157.628 231.781 160.474 232.501 C 218.487 247.179 251.309 296.671 251.309 296.671 Z"/>
    </g>
    <g transform="matrix(-1, 0, 0, 1, 636.109985, 0.524025)">
      <title>left</title>
      <path d="M 384.11 170.585 C 371.507 148.857 353.276 130.894 347.846 127.378 C 346.295 126.374 342.973 125.792 341.774 127.932 C 341.452 128.506 339.971 132.495 344.758 133.863 C 350.216 135.423 367.967 149.556 384.11 170.585 Z"/>
      <path d="M 381.153 187.952 C 369.666 165.968 343.921 144.765 337.879 141.302 C 336.153 140.313 332.697 139.669 331.363 141.776 C 331.005 142.342 329.869 145.982 334.985 147.742 C 345.13 151.233 371.562 175.201 381.153 187.952 Z"/>
      <path d="M 380.162 206.87 C 365.876 181.823 335.799 159.806 328.467 155.974 C 326.372 154.879 322.178 154.166 320.56 156.498 C 320.125 157.124 319.11 160.381 325.073 162.885 C 340.699 169.446 366.167 188.993 380.162 206.87 Z"/>
      <path d="M 377.17 223.619 C 365.115 201.709 326.043 173.076 317.611 170.934 C 314.921 170.251 311.423 168.913 309.498 171.521 C 308.98 172.221 307.37 177.306 314.869 178.666 C 323.903 180.305 359.348 200.543 377.17 223.619 Z"/>
      <path d="M 378.956 246.739 C 354.443 209.036 318.1 192.799 308.001 188.419 C 305.116 187.167 299.338 186.352 297.109 189.018 C 296.51 189.733 294.632 196.041 303.327 196.319 C 312.171 196.602 356.48 217.494 378.956 246.739 Z"/>
      <path d="M 378.355 266.557 C 357.592 229.986 308.34 210.105 296.662 205.45 C 293.327 204.12 286.646 203.254 284.068 206.087 C 283.375 206.847 281.286 213.632 291.258 213.845 C 308.245 214.208 348.768 232.703 378.355 266.557 Z"/>
      <path d="M 383.822 296.289 C 357.924 247.627 302.263 227.723 285.172 224.165 C 285.14 224.197 275.91 221.509 272.056 222.515 C 268.717 223.386 269.46 228.329 271.729 228.787 C 275.711 229.59 290.141 231.399 292.987 232.119 C 351 246.797 383.822 296.289 383.822 296.289 Z"/>
    </g>
  </g>
  <g transform="matrix(1, 0, 0, 1, 0.14700299501413383, 0.5690000057220459)">
    <title>left</title>
    <path d="M 210.199 121.059 C 151.418 186.532 109.999 239.797 109.999 239.797 C 162.702 237.646 215.141 259.868 251.204 306.463 C 225.821 260.632 175.082 232.711 128.211 230.944 C 128.211 230.944 159.47 193.21 210.199 121.059 Z"/>
    <path d="M 195.934 114.431 C 168.809 141.103 77.023 255.922 77.023 255.922 C 144.521 244.203 198.563 263.61 250.855 306.069 C 206.64 259.084 156.783 241.313 97.488 244.735 C 97.488 244.735 118.818 218.704 195.934 114.431 Z"/>
    <path d="M 74.853 264.733 C 134.952 250.565 198.922 267.484 250.949 306.383 C 197.176 278.543 128.201 263.126 74.853 264.733 Z"/>
  </g>
  <g transform="matrix(-1, 0, 0, 1, 503.20401000976557, 0.5690000057220459)" style="">
    <title>right</title>
    <path d="M 210.199 121.059 C 151.418 186.532 109.999 239.797 109.999 239.797 C 162.702 237.646 215.141 259.868 251.204 306.463 C 225.821 260.632 175.082 232.711 128.211 230.944 C 128.211 230.944 159.47 193.21 210.199 121.059 Z"/>
    <path d="M 195.934 114.431 C 168.809 141.103 77.023 255.922 77.023 255.922 C 144.521 244.203 198.563 263.61 250.855 306.069 C 206.64 259.084 156.783 241.313 97.488 244.735 C 97.488 244.735 118.818 218.704 195.934 114.431 Z"/>
    <path d="M 74.853 264.733 C 134.952 250.565 198.922 267.484 250.949 306.383 C 197.176 278.543 128.201 263.126 74.853 264.733 Z"/>
  </g>
  <g>
    <title>TEXT</title>
    <path d="M 117.639 333.017 L 117.581 375.177 L 125.012 375.183 L 125.102 340.317 L 142.284 340.377 L 142.179 375.032 L 149.626 375.032 L 149.547 333.079 L 117.639 333.017 Z">
      <title>P</title>
    </path>
    <path d="M 181.281 357.665 L 165.498 357.845 L 165.462 350.402 L 181.497 350.259 C 178.836 342.687 169.875 336.688 159.709 343.392 L 154.245 338.142 C 169.022 324.098 190.157 336.202 190.305 354.213 C 190.46 373.062 169.8 383.088 153.957 369.314 L 159.494 364.28 C 170.032 370.901 180.512 365.613 181.281 357.665 Z">
      <title>E</title>
    </path>
    <path d="M 195.653 332.971 L 195.605 375.033 L 201.856 374.984 L 201.759 364.469 L 206.265 359.09 L 218.719 375.13 L 228.798 375.227 L 210.966 352.742 L 226.812 332.923 L 215.472 332.826 L 202.195 350.367 L 202.195 332.923 L 195.653 332.971 Z">
      <title>K</title>
    </path>
    <path d="M 250.61 332.932 L 250.552 375.066 L 258.004 375.124 L 258.004 340.385 L 275.374 340.499 L 275.317 332.932 L 250.61 332.932 Z">
      <title>G</title>
    </path>
    <path d="M 280.913 332.9 L 280.855 375.034 L 288.307 375.092 L 288.307 340.353 L 305.677 340.467 L 305.62 332.9 L 280.913 332.9 Z">
      <title>G</title>
    </path>
    <path d="M 311.097 332.947 L 311.127 340.514 L 322.946 340.639 L 322.633 375.096 L 330.263 375.033 L 330.263 340.326 L 341.894 340.389 L 341.769 332.884 L 311.097 332.947 Z">
      <title>T</title>
    </path>
    <path d="M 360.552 360.036 L 346.975 332.699 C 350.149 332.678 353.282 332.658 356.374 332.637 L 364.852 351.681 L 373.514 332.883 L 381.685 332.883 L 365.466 366.855 C 362.989 372.016 357.357 375.046 351.705 375.026 L 351.644 367.654 C 356.559 366.897 358.914 365.463 360.552 360.036 Z">
      <title>Y</title>
    </path>
  </g>
</svg>